<?xml version="1.0" standalone="no"?><!DOCTYPE svg PUBLIC "-//W3C//DTD SVG 1.1//EN" "http://www.w3.org/Graphics/SVG/1.1/DTD/svg11.dtd"><svg t="1687046418790" class="icon" viewBox="0 0 1024 1024" version="1.1" xmlns="http://www.w3.org/2000/svg" p-id="1373" xmlns:xlink="http://www.w3.org/1999/xlink" width="200" height="200"><path d="M780.288 583.68l20.48 68.096c5.12 15.872 21.504 24.576 37.376 19.968 15.872-5.12 24.576-21.504 19.968-37.376l-20.48-68.096c-19.456-64-77.312-107.008-144.384-107.008h-154.112V363.52c73.216-14.336 128.512-78.848 128.512-155.648 0-87.552-71.168-158.72-158.72-158.72s-158.72 71.168-158.72 158.72c0 77.312 55.296 141.824 128.512 155.648v96.256H324.608c-66.048 0-125.44 44.032-144.384 107.008l-20.48 68.096c-2.56 7.68-1.536 15.36 2.048 22.528 3.584 7.168 10.24 12.8 18.432 14.848 3.072 1.024 6.144 1.536 9.216 1.536 4.608 0 9.728-1.024 13.824-3.584 7.168-3.584 12.288-10.24 14.336-17.92l20.48-68.096c11.264-38.4 46.08-64 86.528-64h154.624v126.464c0 16.896 13.312 30.208 30.208 30.208 16.896 0 30.208-13.312 30.208-30.208v-126.464h154.112c40.448-0.512 75.264 25.088 86.528 63.488zM509.44 109.056c54.272 0 98.816 44.544 98.816 98.816s-44.544 98.816-98.816 98.816c-54.272 0-98.816-44.544-98.816-98.816s44.544-98.816 98.816-98.816zM185.856 685.568c-75.264 0-136.704 61.44-136.704 136.704s61.44 136.704 136.704 136.704 136.704-61.44 136.704-136.704-61.44-136.704-136.704-136.704z m76.8 136.704c0 42.496-34.304 76.8-76.8 76.8s-76.8-34.304-76.8-76.8 34.304-76.8 76.8-76.8 76.8 34.304 76.8 76.8zM832.512 685.568c-75.264 0-136.704 61.44-136.704 136.704s61.44 136.704 136.704 136.704 136.704-61.44 136.704-136.704-61.44-136.704-136.704-136.704z m76.8 136.704c0 42.496-34.304 76.8-76.8 76.8s-76.8-34.304-76.8-76.8 34.304-76.8 76.8-76.8 76.8 34.304 76.8 76.8zM509.44 685.568c-75.264 0-136.704 61.44-136.704 136.704 0 36.352 13.824 70.144 39.424 96.256 26.112 26.112 60.416 40.448 97.28 40.448 75.264 0 136.704-61.44 136.704-136.704s-61.44-136.704-136.704-136.704z m0 213.504c-42.496 0-76.8-34.304-76.8-76.8s34.304-76.8 76.8-76.8 76.8 34.304 76.8 76.8-34.304 76.8-76.8 76.8z" p-id="1374"></path></svg>