<?xml version="1.0" standalone="no"?><!DOCTYPE svg PUBLIC "-//W3C//DTD SVG 1.1//EN" "http://www.w3.org/Graphics/SVG/1.1/DTD/svg11.dtd"><svg t="1686862903723" class="icon" viewBox="0 0 1024 1024" version="1.1" xmlns="http://www.w3.org/2000/svg" p-id="926" xmlns:xlink="http://www.w3.org/1999/xlink" width="200" height="200"><path d="M884.992 651.584c-8.448-55.104-33.088-216.32-39.424-246.592-1.6-137.728-124.928-225.6-237.504-262.208v-10.176c0-49.28-43.008-89.344-95.936-89.344s-95.872 40.128-95.872 89.344v6.656c-125.184 36.16-245.76 129.92-247.36 266.112-6.336 30.912-27.52 190.592-34.816 245.888-31.424 18.624-59.392 45.376-59.392 111.552 0 31.36 25.344 90.624 121.088 90.624h153.408A164.992 164.992 0 0 0 512 990.72a165.12 165.12 0 0 0 162.944-137.28h153.344c95.808 0 121.152-59.264 121.152-90.624-0.064-73.6-36.672-95.68-64.448-111.232zM512 942.72a117.824 117.824 0 0 1-114.496-89.28H626.56A117.76 117.76 0 0 1 512 942.72z m316.224-137.216H195.712c-67.968 0-72.768-35.904-73.088-42.624 0-47.744 17.024-60.288 44.992-75.392l10.816-5.824 1.6-12.16c11.968-91.072 32.256-240.832 35.968-255.04l0.896-6.4c0-118.272 115.008-199.232 229.056-227.072l18.304-4.48v-43.904c0-22.784 21.504-41.344 47.936-41.344s47.936 18.56 47.936 41.344v46.144l17.408 4.928c101.504 28.608 220.032 104.448 220.032 224.064l0.832 6.144c3.52 13.376 26.944 164.352 40.896 256.384l1.728 11.328 18.688 10.752c25.152 14.08 41.664 23.296 41.664 70.528 0 1.728-0.832 42.624-73.152 42.624z" p-id="927"></path></svg>
