<?xml version="1.0" standalone="no"?><!DOCTYPE svg PUBLIC "-//W3C//DTD SVG 1.1//EN" "http://www.w3.org/Graphics/SVG/1.1/DTD/svg11.dtd"><svg t="1687046734394" class="icon" viewBox="0 0 1024 1024" version="1.1" xmlns="http://www.w3.org/2000/svg" p-id="1019" xmlns:xlink="http://www.w3.org/1999/xlink" width="200" height="200"><path d="M744.64406187 662.08358907c-54.01849299 0-97.92923117 43.86931295-97.92923117 97.80495548s43.95216339 97.88780595 97.92923117 97.88780595 97.97065639-43.95216339 97.97065639-97.88780595-43.95216339-97.8049555-97.97065639-97.80495548z m0 145.31968821a47.51473271 47.51473271 0 0 1-47.4733075-47.4733075 47.51473271 47.51473271 0 0 1 94.946615 0 47.4733075 47.4733075 0 0 1-47.4733075 47.4733075z m258.99050476-98.55060955c-3.68684499-19.42843038-16.15583763-32.02169869-32.10454913-32.02169868h-2.23696213a55.42695063 55.42695063 0 0 1-55.42695064-55.3441002c0-7.99506836 3.47971888-17.81284661 4.80532606-20.96116369 7.62224133-16.98434213 1.78128466-37.94550581-15.07878178-49.58599396l-64.83047665-35.87424457a44.03501385 44.03501385 0 0 0-47.39045704 9.44495124c-8.0364936 8.36789538-29.49475998 25.55936364-44.24213997 25.55936362-14.95450611 0-36.53704818-17.56429527-44.57354177-25.97361589a43.91073817 43.91073817 0 0 0-47.30760659-9.85920347l-1.24275675 0.4971027-65.99038293 36.24707161-1.53273332 0.95278017a40.05819227 40.05819227 0 0 0-13.71174937 48.46751288c0.53852791 1.20133152 4.92960174 11.97188994 4.92960175 21.12686459a55.50980109 55.50980109 0 0 1-55.50980109 55.34410019h-2.60978916c-15.61730971 0-28.04487712 12.63469353-31.73172211 32.02169869-0.57995315 2.89976573-5.46812965 29.78473655-5.46812966 51.45012907 0 21.58254206 4.88817651 48.46751289 5.46812966 51.45012906 3.68684499 19.34557993 16.11441241 31.89742302 32.10454914 31.89742301h2.1955369c30.57181582 0 55.50980109 24.85513482 55.50980109 55.42695065 0 7.91221792-3.5211441 17.81284661-4.84675129 20.96116369-7.62224133 16.98434213-1.78128466 37.86265537 14.99593133 49.50314351l63.62914513 35.4185671a43.20650935 43.20650935 0 0 0 47.68043362-9.94205393c7.82936747-8.49217106 30.11613835-27.09209695 45.27777059-27.09209694 15.41018358 0 37.36555267 18.59992589 45.65059761 27.58919964 7.66366657 8.45074583 19.51128083 13.54604848 31.5660212 13.54604848a41.13524812 41.13524812 0 0 0 17.64714573-4.05967203l64.33337395-35.41856711 1.5327333-1.03563061a39.93391661 39.93391661 0 0 0 13.67032416-48.38466244 64.54050007 64.54050007 0 0 1-4.88817652-21.12686459 55.50980109 55.50980109 0 0 1 55.42695064-55.42695063h2.60978916c15.61730971 0 28.08630235-12.55184308 31.73172211-31.89742302-0.04142523-0.24855135 5.42670444-28.70768071 5.42670444-51.45012907 0-21.66539251-4.92960174-48.55036334-5.46812967-51.45012907z m-48.21896153 85.29453764a105.75859863 105.75859863 0 0 0-92.04684927 104.93009415c0 12.30329173 2.98261618 24.02663031 5.63383057 32.02169869l-46.43767689 25.55936362c-4.14252247-4.14252247-10.81198365-10.10775483-19.05560336-16.2801133-20.54691145-15.20305746-40.4310193-22.9909997-59.11379563-22.9909997-18.47565022 0-38.19405716 7.62224133-58.57526771 22.493897a190.72173449 190.72173449 0 0 0-18.97275291 16.03156196l-44.36641565-24.77228436c2.65121438-7.99506836 5.67525579-19.84268263 5.67525579-32.10454914a105.75859863 105.75859863 0 0 0-92.04684927-104.93009414 248.3027968 248.3027968 0 0 1-3.1897423-33.80298335c0-11.22623589 1.86413511-25.22796183 3.1897423-33.88583379a105.88287431 105.88287431 0 0 0 92.04684927-104.93009416c0-12.30329173-2.98261618-24.02663031-5.63383057-32.02169868l47.92898498-26.30501767c4.14252247 3.97682157 10.81198365 9.85920347 18.9727529 15.70016015 20.1326592 14.41597819 39.51966435 21.58254206 57.705338 21.58254207 17.93712229 0 37.11700133-7.12513865 57.12538484-21.20971504 8.11934403-5.67525579 14.70595476-11.3919368 18.88990248-15.28590791l45.89914895 25.47651318a103.97731397 103.97731397 0 0 0-5.67525579 32.02169869c0 53.47996507 39.80964093 98.05350685 92.04684927 104.93009414 1.36703242 8.7407224 3.1897423 22.82529881 3.18974229 33.88583379s-1.82270989 25.14511138-3.18974229 33.8858338zM80.34915872 937.43705758v-55.42695065c0-188.52619757 145.48538912-343.78793971 330.73899393-361.26938453l-0.08285044-0.08285043h0.49710269c11.35051156-1.03563061 22.86672403-1.65700898 34.50721217-1.657009l5.21957831 0.12427568c40.96954722-3.14831707 102.94168336-12.80039443 135.37763429-41.67377604l15.90728628-12.38614218c61.93071091-48.38466243 97.51497893-120.54740385 97.51497893-198.13684971C699.98766965 127.94674189 586.02687653 14.8973037 445.92676661 14.8973037c-140.05868468 0-254.01947781 113.04943819-254.01947781 252.03106702 0 77.58944585 35.50141757 149.75218725 97.51497893 198.13684971l15.86586107 12.38614218-18.68277635 7.37369C121.52583205 550.31833283 14.8973037 706.20145335 14.8973037 882.01010693v87.86290158c0 17.81284661 14.66452955 32.35310048 32.7259275 32.35310048h478.2956443a331.11182096 331.11182096 0 0 1-39.56108958-64.78905141H80.34915872z m177.05141033-670.50868686c0-103.1902347 84.59030882-187.20059038 188.56762279-187.20059037 104.0187392 0 188.60904802 83.92750523 188.60904802 187.20059037s-84.59030882 187.24201561-188.60904802 187.24201561c-103.97731397 0-188.56762279-84.01035568-188.56762279-187.24201561z" p-id="1020"></path></svg>
