<?xml version="1.0" standalone="no"?><!DOCTYPE svg PUBLIC "-//W3C//DTD SVG 1.1//EN" "http://www.w3.org/Graphics/SVG/1.1/DTD/svg11.dtd"><svg t="1686869911197" class="icon" viewBox="0 0 1024 1024" version="1.1" xmlns="http://www.w3.org/2000/svg" p-id="926" xmlns:xlink="http://www.w3.org/1999/xlink" width="200" height="200"><path d="M762.621952 921.35241955H274.10204444c-31.80680533 0-57.67168-25.86487467-57.67168-57.67168V478.15429689a45.75869155 45.75869155 0 0 1-27.08821333 8.79638756c-12.34989511 0-23.94248533-4.83510045-32.68061867-13.51497956L43.18230755 359.95648c-18.00055467-18.00055467-18.00055467-47.36068267 0-65.36123733l187.28732445-187.170816c5.12637155-5.00986311 12.75767467-9.20416711 19.51516444-10.71877689 15.78689422-3.49525333 27.37948445-3.08747378 36.70016-2.73794845 2.27191467 0.05825422 4.48557511 0.17476267 6.64098134 0.17476267h45.3800391c6.93225245 0 13.51497955 3.08747378 17.94230045 8.44686222a209.59869155 209.59869155 0 0 0 161.77197511 76.08001423c62.73979733 0 121.69307022-27.72900978 161.77197511-76.08001423 4.42732089-5.35938845 11.010048-8.44686222 17.94230045-8.44686222h50.68117333c2.21366045 0 4.36906667-0.11650845 6.64098133-0.17476267 9.26242133-0.34952533 20.85501155-0.75730489 36.70016 2.73794845 6.75748978 1.51460978 14.38879289 5.70891378 19.51516445 10.71877689l8.15559111 8.03908266 179.07347911 179.07347912c18.00055467 18.00055467 18.00055467 47.36068267 0 65.36123733l-113.42097067 113.42097067c-17.94230045 17.94230045-47.06941155 18.00055467-65.12822044 0.23301688v390.01201778c0 31.92331378-25.92312889 57.78818845-57.72993422 57.78818844zM239.73205333 399.45284267c3.02921955 0 6.05843911 0.58254222 8.912896 1.74762666 8.73813333 3.61176178 14.38879289 12.11687822 14.38879289 21.55406222v440.926208c0 6.11669333 4.95160889 11.06830222 11.06830222 11.06830223h488.57816178a11.06830222 11.06830222 0 0 0 11.06830222-11.06830223V417.39514311c0-9.437184 5.65065955-17.94230045 14.38879289-21.55406222a23.24343467 23.24343467 0 0 1 25.39884089 5.06811733l39.55461689 39.55461689 112.60541155-113.18795378-185.53969778-185.42318933c-8.97115022-1.74762667-15.43736889-1.51460978-22.89390933-1.22333867-2.85445689 0.11650845-5.65065955 0.23301689-8.388608 0.23301689h-40.07890489a256.01565582 256.01565582 0 0 1-190.37479822 84.46862223c-72.876032 0-141.67426845-30.64172089-190.37479822-84.46862223H293.32593778c-2.73794845 0-5.53415111-0.11650845-8.388608-0.23301689-7.45654045-0.29127111-13.98101333-0.524288-22.89390934 1.22333867l-6.99050666 6.87399822-178.84046223 178.782208L189.63342222 440.40556089l33.67094044-34.19522844c4.36906667-4.42732089 10.31099733-6.75748978 16.42769067-6.75748978z m726.19713422-72.40999822l16.48594489 16.48594488-16.48594489-16.48594488z m-186.99605333-186.3552569s0 0.05825422 0 0z" p-id="927"></path><path d="M482.53565155 829.25249422H353.56080355a34.83602489 34.83602489 0 0 1-34.77777067-34.77777067v-240.123904c0-12.87418311 10.42750578-23.30168889 23.3016889-23.30168888s23.30168889 10.42750578 23.30168888 23.30168888v228.2982969h117.14924089c12.87418311 0 23.30168889 10.42750578 23.30168889 23.30168888s-10.42750578 23.30168889-23.30168889 23.30168889z" p-id="928"></path></svg>
